<svg xmlns="http://www.w3.org/2000/svg" width="640" height="400" viewBox="0 0 640 400" fill="none">
  <defs>
    <linearGradient id="grad" x1="0" y1="0" x2="1" y2="1">
      <stop offset="0%" stop-color="#0F172A" />
      <stop offset="100%" stop-color="#1E293B" />
    </linearGradient>
    <linearGradient id="accent" x1="0" y1="0" x2="1" y2="1">
      <stop offset="0%" stop-color="#38BDF8" />
      <stop offset="100%" stop-color="#6366F1" />
    </linearGradient>
  </defs>
  <rect width="640" height="400" rx="28" fill="url(#grad)" />
  <rect x="32" y="36" width="180" height="120" rx="18" fill="#1E293B" opacity="0.8" />
  <rect x="232" y="36" width="180" height="120" rx="18" fill="url(#accent)" opacity="0.9" />
  <rect x="432" y="36" width="180" height="120" rx="18" fill="#1E293B" opacity="0.8" />
  <rect x="32" y="176" width="180" height="120" rx="18" fill="#1E293B" opacity="0.8" />
  <rect x="232" y="176" width="180" height="120" rx="18" fill="#1E293B" opacity="0.8" />
  <rect x="432" y="176" width="180" height="120" rx="18" fill="#1E293B" opacity="0.8" />
  <rect x="32" y="316" width="120" height="48" rx="12" fill="#111827" opacity="0.9" />
  <rect x="172" y="316" width="120" height="48" rx="12" fill="#111827" opacity="0.7" />
  <rect x="312" y="316" width="120" height="48" rx="12" fill="#111827" opacity="0.5" />
  <rect x="452" y="316" width="156" height="48" rx="12" fill="url(#accent)" opacity="0.9" />
  <circle cx="140" cy="94" r="22" fill="#38BDF8" opacity="0.9" />
  <path d="M131 92l8 10 12-16" stroke="#0F172A" stroke-width="4" stroke-linecap="round" stroke-linejoin="round" />
</svg>
