<svg xmlns="http://www.w3.org/2000/svg" width="640" height="400" viewBox="0 0 640 400" fill="none">
  <defs>
    <linearGradient id="paper" x1="0" y1="0" x2="1" y2="1">
      <stop offset="0%" stop-color="#F8FAFC" />
      <stop offset="100%" stop-color="#E2E8F0" />
    </linearGradient>
    <linearGradient id="highlight" x1="0" y1="0" x2="1" y2="1">
      <stop offset="0%" stop-color="#38BDF8" />
      <stop offset="100%" stop-color="#14B8A6" />
    </linearGradient>
  </defs>
  <rect width="640" height="400" rx="28" fill="#0F172A" />
  <rect x="120" y="52" width="400" height="296" rx="24" fill="url(#paper)" />
  <rect x="152" y="92" width="336" height="24" rx="12" fill="#CBD5F5" />
  <rect x="152" y="140" width="256" height="18" rx="9" fill="#94A3B8" />
  <rect x="152" y="176" width="208" height="18" rx="9" fill="#94A3B8" opacity="0.7" />
  <rect x="152" y="212" width="288" height="18" rx="9" fill="#94A3B8" opacity="0.6" />
  <rect x="152" y="248" width="320" height="18" rx="9" fill="#94A3B8" opacity="0.5" />
  <rect x="152" y="284" width="200" height="18" rx="9" fill="#94A3B8" opacity="0.3" />
  <rect x="372" y="132" width="88" height="32" rx="12" fill="url(#highlight)" />
  <rect x="372" y="220" width="88" height="32" rx="12" fill="#F59E0B" opacity="0.7" />
  <circle cx="246" cy="95" r="8" fill="#0F172A" />
  <circle cx="276" cy="95" r="8" fill="#0F172A" />
  <circle cx="306" cy="95" r="8" fill="#0F172A" />
</svg>
