<svg width="1600" height="900" viewBox="0 0 1600 900" fill="none" xmlns="http://www.w3.org/2000/svg">
  <rect width="1600" height="900" rx="32" fill="#040B16"/>
  <rect x="90" y="90" width="1420" height="720" rx="28" fill="#0B1220" stroke="#1E293B"/>
  <text x="130" y="160" fill="#F8FAFC" font-family="Arial, sans-serif" font-size="40" font-weight="700">Placeholder Context-Switching Visual</text>
  <text x="130" y="205" fill="#94A3B8" font-family="Arial, sans-serif" font-size="22">Show multiple AI workspaces for separate clients, internal work, and personal experiments.</text>
  <rect x="130" y="270" width="260" height="420" rx="24" fill="#0F172A" stroke="#334155"/>
  <rect x="430" y="270" width="300" height="200" rx="24" fill="#082F49" stroke="#06B6D4"/>
  <rect x="760" y="270" width="300" height="200" rx="24" fill="#052E2B" stroke="#10B981"/>
  <rect x="1090" y="270" width="300" height="200" rx="24" fill="#3B1D12" stroke="#F59E0B"/>
  <rect x="430" y="500" width="460" height="190" rx="24" fill="#111827" stroke="#3B82F6"/>
  <rect x="920" y="500" width="470" height="190" rx="24" fill="#111827" stroke="#8B5CF6"/>
  <text x="170" y="330" fill="#E2E8F0" font-family="Arial, sans-serif" font-size="28" font-weight="700">Workspace List</text>
  <rect x="160" y="380" width="200" height="48" rx="16" fill="#083344"/>
  <rect x="160" y="448" width="200" height="48" rx="16" fill="#14532D"/>
  <rect x="160" y="516" width="200" height="48" rx="16" fill="#7C2D12"/>
  <rect x="160" y="584" width="200" height="48" rx="16" fill="#312E81"/>
  <text x="190" y="412" fill="#67E8F9" font-family="Arial, sans-serif" font-size="22" font-weight="700">Client A</text>
  <text x="190" y="480" fill="#86EFAC" font-family="Arial, sans-serif" font-size="22" font-weight="700">Client B</text>
  <text x="190" y="548" fill="#FDBA74" font-family="Arial, sans-serif" font-size="22" font-weight="700">Internal</text>
  <text x="190" y="616" fill="#C4B5FD" font-family="Arial, sans-serif" font-size="22" font-weight="700">Personal</text>
  <text x="465" y="330" fill="#67E8F9" font-family="Arial, sans-serif" font-size="28" font-weight="700">Client A Prompts</text>
  <text x="795" y="330" fill="#6EE7B7" font-family="Arial, sans-serif" font-size="28" font-weight="700">Client B Chats</text>
  <text x="1125" y="330" fill="#FCD34D" font-family="Arial, sans-serif" font-size="28" font-weight="700">Internal Notes</text>
  <text x="465" y="560" fill="#93C5FD" font-family="Arial, sans-serif" font-size="28" font-weight="700">Shared Process</text>
  <text x="955" y="560" fill="#C4B5FD" font-family="Arial, sans-serif" font-size="28" font-weight="700">No Context Spillover</text>
  <text x="465" y="370" fill="#CBD5E1" font-family="Arial, sans-serif" font-size="18">Proposal outline</text>
  <text x="465" y="402" fill="#CBD5E1" font-family="Arial, sans-serif" font-size="18">Case study prompt chain</text>
  <text x="795" y="370" fill="#CBD5E1" font-family="Arial, sans-serif" font-size="18">Research summary</text>
  <text x="795" y="402" fill="#CBD5E1" font-family="Arial, sans-serif" font-size="18">Meeting recap</text>
  <text x="1125" y="370" fill="#CBD5E1" font-family="Arial, sans-serif" font-size="18">Brand voice rules</text>
  <text x="1125" y="402" fill="#CBD5E1" font-family="Arial, sans-serif" font-size="18">Internal QA checklist</text>
  <text x="465" y="605" fill="#CBD5E1" font-family="Arial, sans-serif" font-size="18">Use this placeholder to show workflow separation and reduced mental overhead.</text>
  <text x="955" y="605" fill="#CBD5E1" font-family="Arial, sans-serif" font-size="18">Ideal replacement: consultant switching between client workspaces in one browser view.</text>
</svg>