<svg width="120" height="40" viewBox="0 0 120 40" fill="none" xmlns="http://www.w3.org/2000/svg">
  <path d="M24 8C15.163 8 8 15.163 8 24s7.163 16 16 16c1.5 0 3-.2 4.4-.6V27.625h-4.8V24h9.6v11.9c-2.868 1.382-6.083 2.1-9.2 2.1-10.477 0-19-8.523-19-19S13.523 5 24 5s19 8.523 19 19v.9h-4V24c0-8.837-7.163-16-16-16z" fill="#4285F4"/>
  <path d="M44 24c0 8.837 7.163 16 16 16s16-7.163 16-16-7.163-16-16-16-16 7.163-16 16z" fill="#EA4335"/>
  <path d="M76 24c0 8.837 7.163 16 16 16s16-7.163 16-16-7.163-16-16-16-16 7.163-16 16z" fill="#FBBC04"/>
  <path d="M108 24c0 8.837 7.163 16 16 16s16-7.163 16-16-7.163-16-16-16-16 7.163-16 16z" fill="#34A853"/>
</svg>